# xmcd
#
# Track frame offsets:
#	150
#	22361
#	40504
#	52745
#	63876
#	78807
#	93035
#	105895
#	115202
#	135389
#	148108
#	169732
#	182325
#
# Disc length: 2621 seconds
#
# Revision: 0
# Processed by: cddbd v1.5.2PL0 Copyright (c) Steve Scherf et al.
# Submitted via: EasyCDDAExtractor 16.0.8.1
#
DISCID=930a3b0d
DTITLE=Brian Setzer - 13
DYEAR=1900
DGENRE=
TTITLE0=Drugs and Alcohol aka Bullet Holes
TTITLE1=Take A Chance On Love
TTITLE2=Broken Down Piece Of Junk
TTITLE3=We Are Marauders
TTITLE4=Dont Say You Love Me
TTITLE5=Really Rockabilly
TTITLE6=Rocket Cathedrals
TTITLE7=Mini Bar Blues
TTITLE8=Bad Bad Girl In A Bad Bad World
TTITLE9=When Hepcat Gets The Blues
TTITLE10=Back Streets Of Tokyo
TTITLE11=Everybodys Up To Something
TTITLE12=The Hennepin Avenue Bridge
EXTD=
EXTT0=
EXTT1=
EXTT2=
EXTT3=
EXTT4=
EXTT5=
EXTT6=
EXTT7=
EXTT8=
EXTT9=
EXTT10=
EXTT11=
EXTT12=
PLAYORDER=
